#!OML:ASF E:\Style4\Style4.ASF
:FULLY-SPECIFIED
:DEGREES
932
root 0.49846 17.122 -3.09793 11.1852 2.25109 4.68347
lowerback 22.6578 3.06161 0.103441
upperback 14.4358 3.9804 1.81358
thorax 3.10645 1.94236 1.12162
lowerneck -1.84078 -16.5504 -6.9972
upperneck 29.7386 -22.0854 0.907519
head 10.8135 -10.5284 -0.78409
rclavicle -2.70347e-014 -8.74653e-015
rhumerus 65.507 5.6213 -441.047
rradius 12.384
rwrist 393.627
rhand 33.499 5.33865
rfingers 7.12502
rthumb 56.8222 -11.3945
lclavicle -2.70347e-014 -8.74653e-015
lhumerus 69.0952 28.3741 30.9469
lradius 119.216
lwrist 50.8701
lhand 11.0735 29.309
lfingers 7.12502
lthumb 36.1438 55.5901
rfemur -43.902 -8.75587 14.2221
rtibia 49.0844
rfoot -14.3647 -16.0805
rtoes -10.2011
lfemur -41.9587 0.690883 -26.1019
ltibia 44.3536
lfoot -13.4624 7.92627
ltoes -13.9644
933
root 0.499879 17.137 -3.09872 11.4437 2.24018 4.61521
lowerback 22.4661 3.0823 0.15895
upperback 14.3827 4.01601 1.83089
thorax 3.14045 1.96263 1.10933
lowerneck 1.35706 -16.4084 -7.19543
upperneck 25.4684 -22.2534 3.04033
head 8.98173 -10.6555 0.390117
rclavicle 7.95139e-015 3.97569e-014
rhumerus 65.7394 6.0299 -439.777
rradius 12.792
rwrist 392.461
rhand 31.2724 5.79519
rfingers 7.12502
rthumb 54.8471 -12.4535
lclavicle 7.95139e-015 3.97569e-014
lhumerus 69.1486 28.5286 30.8719
lradius 119.157
lwrist 50.9723
lhand 11.195 29.2589
lfingers 7.12502
lthumb 36.2589 55.5114
rfemur -44.0133 -8.71561 14.3238
rtibia 48.7529
rfoot -14.2299 -16.1061
rtoes -10.3313
lfemur -42.0739 0.724127 -26.0464
ltibia 44.0289
lfoot -13.3362 7.9548
ltoes -14.4039
934
root 0.501264 17.1531 -3.09721 11.6656 2.23079 4.57876
lowerback 22.2803 3.08906 0.207084
upperback 14.34 4.03246 1.83455
thorax 3.18456 1.97358 1.09061
lowerneck 2.57168 -16.3361 -7.25843
upperneck 23.8605 -22.2708 3.86028
head 8.32177 -10.6871 0.823314
rclavicle 4.13472e-014 2.70347e-014
rhumerus 65.954 6.39761 -438.632
rradius 13.1984
rwrist 391.639
rhand 28.911 6.7047
rfingers 7.12502
rthumb 52.7253 -12.9601
lclavicle 4.13472e-014 2.70347e-014
lhumerus 69.1242 28.6474 30.7826
lradius 119.152
lwrist 51.0589
lhand 11.1492 29.3322
lfingers 7.12502
lthumb 36.2155 55.5954
rfemur -44.0823 -8.699 14.3793
rtibia 48.4564
rfoot -14.1713 -16.0636
rtoes -10.3688
lfemur -42.1399 0.715836 -26.0207
ltibia 43.7289
lfoot -13.2737 8.03998
ltoes -14.8105
935
root 0.500997 17.1687 -3.10161 11.8286 2.27386 4.57667
lowerback 22.2331 3.1046 0.23619
upperback 14.2851 4.05801 1.84822
thorax 3.14572 1.98776 1.08398
lowerneck 2.52439 -16.3869 -7.20393
upperneck 23.94 -22.3314 3.80405
head 8.34795 -10.7111 0.786522
rclavicle 1.90833e-014 4.77083e-015
rhumerus 66.1641 6.79114 -437.261
rradius 13.5865
rwrist 390.45
rhand 26.2178 7.40608
rfingers 7.12502
rthumb 50.2768 -13.6701
lclavicle 1.90833e-014 4.77083e-015
lhumerus 69.1681 28.7162 30.7415
lradius 119.136
lwrist 51.0971
lhand 11.1283 29.3328
lfingers 7.12502
lthumb 36.1957 55.601
rfemur -44.1149 -8.70337 14.4031
rtibia 48.1823
rfoot -13.9862 -16.1294
rtoes -10.6344
lfemur -42.1597 0.643555 -25.9984
ltibia 43.4452
lfoot -13.2026 8.00887
ltoes -14.5246
936
root 0.501079 17.182 -3.10931 11.9623 2.34106 4.55303
lowerback 22.2861 3.09856 0.310664
upperback 14.2153 4.06419 1.86586
thorax 3.04459 1.99511 1.05414
lowerneck 2.54758 -16.4068 -7.14981
upperneck 23.9094 -22.3561 3.79539
head 8.3275 -10.7203 0.778817
rclavicle 4.77083e-014 -1.98785e-014
rhumerus 66.4059 7.22315 -435.901
rradius 13.9568
rwrist 389.041
rhand 23.4031 7.60753
rfingers 7.12502
rthumb 47.6911 -14.7481
lclavicle 4.77083e-014 -1.98785e-014
lhumerus 69.1693 28.8196 30.6642
lradius 119.184
lwrist 51.1628
lhand 11.0636 29.2917
lfingers 7.12502
lthumb 36.1344 55.575
rfemur -44.1356 -8.68757 14.4365
rtibia 47.9336
rfoot -13.8996 -16.1904
rtoes -10.4804
lfemur -42.1888 0.635515 -25.9788
ltibia 43.164
lfoot -12.9358 7.95581
ltoes -14.669
937
root 0.500099 17.193 -3.11449 12.0549 2.41033 4.56069
lowerback 22.3749 3.10445 0.348313
upperback 14.1619 4.07967 1.88341
thorax 2.94212 2.00474 1.0419
lowerneck 2.64289 -16.4012 -7.08907
upperneck 23.7505 -22.3522 3.84088
head 8.25444 -10.7176 0.801509
rclavicle 1.11319e-014 -1.03368e-014
rhumerus 66.6345 7.61026 -434.513
rradius 14.4101
rwrist 387.786
rhand 20.7214 7.91458
rfingers 7.12502
rthumb 45.2065 -15.5032
lclavicle 1.11319e-014 -1.03368e-014
lhumerus 69.2402 28.9437 30.6566
lradius 119.209
lwrist 51.3301
lhand 11.1923 29.3751
lfingers 7.12502
lthumb 36.2563 55.6282
rfemur -44.1091 -8.71616 14.4417
rtibia 47.7014
rfoot -13.7431 -16.2515
rtoes -10.652
lfemur -42.1688 0.630435 -25.9929
ltibia 42.8894
lfoot -12.7126 7.89471
ltoes -14.6239
938
root 0.500539 17.2042 -3.11735 12.1277 2.47066 4.61473
lowerback 22.4554 3.12121 0.355814
upperback 14.1211 4.10385 1.89004
thorax 2.85661 2.01736 1.03413
lowerneck 2.47548 -16.4415 -7.01545
upperneck 23.9329 -22.3865 3.70759
head 8.32266 -10.7272 0.72693
rclavicle -2.06736e-014 -9.54166e-015
rhumerus 66.8666 7.93072 -433.119
rradius 14.8993
rwrist 386.852
rhand 18.0992 8.54128
rfingers 7.12502
rthumb 42.7604 -15.7888
lclavicle -2.06736e-014 -9.54166e-015
lhumerus 69.2782 29.0304 30.6139
lradius 119.209
lwrist 51.4008
lhand 11.288 29.3101
lfingers 7.12502
lthumb 36.347 55.5406
rfemur -44.0698 -8.8016 14.3983
rtibia 47.4964
rfoot -13.6763 -16.2022
rtoes -10.8025
lfemur -42.109 0.517394 -26.0303
ltibia 42.6291
lfoot -12.6093 7.91759
ltoes -14.327
939
root 0.501986 17.2164 -3.12074 12.1952 2.51204 4.61495
lowerback 22.5272 3.1317 0.419885
upperback 14.0862 4.12927 1.90026
thorax 2.78569 2.03386 0.999006
lowerneck 2.32922 -16.4879 -6.99153
upperneck 24.1071 -22.4377 3.62358
head 8.3978 -10.7455 0.672962
rclavicle 7.95139e-015 -4.77083e-015
rhumerus 67.1065 8.25202 -431.783
rradius 15.3663
rwrist 386.137
rhand 15.4046 9.14231
rfingers 7.12502
rthumb 40.2324 -16.0132
lclavicle 7.95139e-015 -4.77083e-015
lhumerus 69.2709 29.0851 30.5423
lradius 119.201
lwrist 51.3312
lhand 11.2296 29.1371
lfingers 7.12502
lthumb 36.2916 55.3815
rfemur -44.028 -8.8292 14.4033
rtibia 47.3154
rfoot -13.6344 -16.1991
rtoes -10.9453
lfemur -42.0649 0.419624 -26.0106
ltibia 42.4042
lfoot -12.5199 7.93405
ltoes -13.958
940
root 0.499978 17.2248 -3.1271 12.3447 2.56625 4.59618
lowerback 22.5371 3.14088 0.469365
upperback 14.0271 4.15066 1.91702
thorax 2.71604 2.04691 0.981816
lowerneck 2.3483 -16.5075 -7.01581
upperneck 24.1299 -22.4769 3.68696
head 8.41588 -10.7598 0.69136
rclavicle 4.13472e-014 9.54166e-015
rhumerus 67.3219 8.4169 -431.04
rradius 15.6961
rwrist 386.157
rhand 12.6152 9.94578
rfingers 7.12502
rthumb 37.6023 -15.9606
lclavicle 4.13472e-014 9.54166e-015
lhumerus 69.2494 29.1526 30.4578
lradius 119.199
lwrist 51.3028
lhand 11.0686 29.0929
lfingers 7.12502
lthumb 36.1392 55.3751
rfemur -44.1185 -8.82655 14.4471
rtibia 47.1843
rfoot -13.552 -16.2553
rtoes -10.8908
lfemur -42.1571 0.421667 -25.9935
ltibia 42.2206
lfoot -12.3141 7.86977
ltoes -14.0334
941
root 0.495643 17.2285 -3.13549 12.5914 2.61006 4.59487
lowerback 22.4354 3.16033 0.444746
upperback 13.9526 4.17197 1.9326
thorax 2.67782 2.05512 1.00982
lowerneck 1.91287 -16.5649 -6.96561
upperneck 24.7009 -22.528 3.44914
head 8.65634 -10.7674 0.543988
rclavicle -4.77083e-015 2.8625e-014
rhumerus 67.5496 8.59087 -430.379
rradius 16.019
rwrist 386.209
rhand 9.64536 10.7995
rfingers 7.12502
rthumb 34.7899 -15.8053
lclavicle -4.77083e-015 2.8625e-014
lhumerus 69.2306 29.2567 30.3939
lradius 119.177
lwrist 51.4092
lhand 11.045 29.1014
lfingers 7.12502
lthumb 36.1168 55.3892
rfemur -44.3749 -8.87786 14.5225
rtibia 47.1063
rfoot -13.4793 -16.2855
rtoes -10.9154
lfemur -42.4034 0.482512 -26.0031
ltibia 42.1001
lfoot -12.1058 7.68183
ltoes -13.7219
942
root 0.494833 17.2304 -3.14154 12.7376 2.60978 4.6367
lowerback 22.4237 3.21128 0.43043
upperback 13.9002 4.23502 1.93498
thorax 2.62226 2.08557 1.00617
lowerneck 0.524055 -16.6923 -6.85139
upperneck 26.4969 -22.6031 2.66501
head 9.42469 -10.7586 0.073835
rclavicle -1.59028e-015 1.59028e-014
rhumerus 67.6812 8.64326 -430.024
rradius 16.3119
rwrist 386.512
rhand 6.79965 11.4288
rfingers 7.12502
rthumb 32.085 -15.7601
lclavicle -1.59028e-015 1.59028e-014
lhumerus 69.3128 29.2785 30.4178
lradius 119.195
lwrist 51.4725
lhand 11.0704 29.3024
lfingers 7.12502
lthumb 36.1409 55.5842
rfemur -44.5594 -8.92366 14.5155
rtibia 47.0893
rfoot -13.4138 -16.2617
rtoes -10.9569
lfemur -42.546 0.549081 -26.0795
ltibia 42.0284
lfoot -11.9974 7.5898
ltoes -13.66
943
root 0.494973 17.2293 -3.14646 12.7717 2.6507 4.67859
lowerback 22.5198 3.25458 0.469427
upperback 13.8741 4.29834 1.94722
thorax 2.54722 2.11935 0.978665
lowerneck 3.41184 -16.5851 -7.03888
upperneck 22.8285 -22.7511 4.80355
head 7.94919 -10.8786 1.14975
rclavicle 4.92986e-014 -3.18055e-015
rhumerus 67.8042 8.64101 -429.655
rradius 16.5805
rwrist 386.657
rhand 4.10218 11.8807
rfingers 7.12502
rthumb 29.5132 -15.7936
lclavicle 4.92986e-014 -3.18055e-015
lhumerus 69.4233 29.2428 30.4671
lradius 119.235
lwrist 51.4046
lhand 11.1077 29.4073
lfingers 7.12502
lthumb 36.1762 55.6804
rfemur -44.6227 -8.98624 14.4843
rtibia 47.1155
rfoot -13.426 -16.2421
rtoes -11.0333
lfemur -42.5878 0.520975 -26.1253
ltibia 42.0112
lfoot -11.9771 7.53725
ltoes -13.4276
944
root 0.493091 17.2259 -3.15152 12.8011 2.71035 4.71329
lowerback 22.6285 3.32525 0.508256
upperback 13.8503 4.39704 1.97991
thorax 2.46688 2.16992 0.965265
lowerneck 0.668166 -16.9351 -6.97497
upperneck 26.7013 -23.0881 3.295
head 9.60285 -10.9293 0.227744
rclavicle 1.59028e-015 -1.74931e-014
rhumerus 67.9668 8.56203 -429.07
rradius 16.8038
rwrist 386.536
rhand 1.45912 12.4857
rfingers 7.12502
rthumb 26.9872 -15.6067
lclavicle 1.59028e-015 -1.74931e-014
lhumerus 69.5595 29.1993 30.5878
lradius 119.315
lwrist 51.4129
lhand 11.111 29.4678
lfingers 7.12502
lthumb 36.1793 55.7401
rfemur -44.7035 -9.05753 14.4771
rtibia 47.1817
rfoot -13.3646 -16.2564
rtoes -11.3051
lfemur -42.658 0.482146 -26.1501
ltibia 42.0406
lfoot -11.9627 7.48129
ltoes -13.2936
945
root 0.492588 17.221 -3.15565 12.8045 2.71399 4.7336
lowerback 22.7349 3.41909 0.552169
upperback 13.841 4.52536 2.01388
thorax 2.404 2.23529 0.944987
lowerneck 2.33872 -16.9197 -6.74301
upperneck 24.482 -23.1419 4.0984
head 8.603 -10.9988 0.698157
rclavicle -4.77083e-015 -1.11319e-014
rhumerus 68.1143 8.53132 -428.232
rradius 17.0711
rwrist 386.155
rhand -1.22463 12.9766
rfingers 7.12502
rthumb 24.4169 -15.4875
lclavicle -4.77083e-015 -1.11319e-014
lhumerus 69.6349 29.0759 30.616
lradius 119.346
lwrist 51.2867
lhand 10.9543 29.3347
lfingers 7.12502
lthumb 36.0309 55.6436
rfemur -44.7763 -9.05163 14.4538
rtibia 47.2885
rfoot -13.421 -16.2415
rtoes -11.0911
lfemur -42.729 0.486251 -26.1747
ltibia 42.1305
lfoot -12.0175 7.47921
ltoes -13.48
946
root 0.493327 17.2137 -3.15876 12.75 2.74638 4.71775
lowerback 22.8895 3.47523 0.669497
upperback 13.8404 4.61915 2.05064
thorax 2.33386 2.2878 0.89108
lowerneck 2.8513 -16.9405 -6.5232
upperneck 23.788 -23.1329 4.08457
head 8.24606 -11.0168 0.750597
rclavicle 9.54166e-015 -6.36111e-015
rhumerus 68.2814 8.58396 -427.256
rradius 17.343
rwrist 385.498
rhand -3.77165 13.4673
rfingers 7.12502
rthumb 21.9732 -15.3047
lclavicle 9.54166e-015 -6.36111e-015
lhumerus 69.6691 28.9402 30.6101
lradius 119.392
lwrist 51.1029
lhand 10.8066 29.1829
lfingers 7.12502
lthumb 35.8909 55.5261
rfemur -44.8038 -9.06752 14.4611
rtibia 47.4384
rfoot -13.4352 -16.3031
rtoes -11.1578
lfemur -42.7655 0.465345 -26.161
ltibia 42.2741
lfoot -12.0961 7.51203
ltoes -13.7628
